<?xml version="1.0" encoding="UTF-8" standalone="no"?>
<!DOCTYPE svg PUBLIC "-//W3C//DTD SVG 1.1//EN"
 "http://www.w3.org/Graphics/SVG/1.1/DTD/svg11.dtd">
<!-- Generated by graphviz version 2.28.0 (20120524.1247)
 -->
<!-- Title: pelletier_problems/equivalence.p Pages: 1 -->
<svg width="1429pt" height="768pt"
 viewBox="0.00 0.00 1429.00 768.00" xmlns="http://www.w3.org/2000/svg" xmlns:xlink="http://www.w3.org/1999/xlink">
<g id="graph1" class="graph" transform="scale(1 1) rotate(0) translate(4 764)">
<title>pelletier_problems/equivalence.p</title>
<polygon fill="white" stroke="white" points="-4,5 -4,-764 1426,-764 1426,5 -4,5"/>
<!-- node_5 -->
<g id="node1" class="node"><title>node_5</title>
<polygon fill="lightgrey" stroke="black" points="776.25,-212 447.75,-212 447.75,-176 776.25,-176 776.25,-212"/>
<text text-anchor="middle" x="612" y="-190.3" font-family="Times,serif" font-size="14.00">[•∀(contains(sk0, •0) = contains(sk1, •0))*]</text>
</g>
<!-- node_2 -->
<g id="node3" class="node"><title>node_2</title>
<polygon fill="lightgrey" stroke="black" points="765,-124 459,-124 459,-88 765,-88 765,-124"/>
<text text-anchor="middle" x="612" y="-102.3" font-family="Times,serif" font-size="14.00">[contains(sk0, X0) = contains(sk1, X0)*]</text>
</g>
<!-- node_5&#45;&gt;node_2 -->
<g id="edge2" class="edge"><title>node_5&#45;&gt;node_2</title>
<path fill="none" stroke="black" d="M612,-175.597C612,-163.746 612,-147.817 612,-134.292"/>
<polygon fill="black" stroke="black" points="615.5,-134.084 612,-124.084 608.5,-134.084 615.5,-134.084"/>
<text text-anchor="middle" x="627.5" y="-146.3" font-family="Times,serif" font-size="14.00">elim</text>
</g>
<!-- node_0 -->
<g id="node12" class="node"><title>node_0</title>
<polygon fill="red" stroke="red" points="639,-36 585,-36 585,-0 639,-0 639,-36"/>
<text text-anchor="middle" x="612" y="-14.3" font-family="Times,serif" font-size="14.00">[]</text>
</g>
<!-- node_2&#45;&gt;node_0 -->
<g id="edge14" class="edge"><title>node_2&#45;&gt;node_0</title>
<path fill="none" stroke="black" d="M612,-87.5966C612,-75.7459 612,-59.8169 612,-46.2917"/>
<polygon fill="black" stroke="black" points="615.5,-46.084 612,-36.084 608.5,-46.084 615.5,-46.084"/>
<text text-anchor="middle" x="636.5" y="-58.3" font-family="Times,serif" font-size="14.00">demod</text>
</g>
<!-- node_11 -->
<g id="node4" class="node"><title>node_11</title>
<polygon fill="lightgrey" stroke="black" points="130.25,-300 -0.25,-300 -0.25,-264 130.25,-264 130.25,-300"/>
<text text-anchor="middle" x="65" y="-278.3" font-family="Times,serif" font-size="14.00">[equ(sk1, sk2)*]</text>
</g>
<!-- node_6 -->
<g id="node6" class="node"><title>node_6</title>
<polygon fill="lightgrey" stroke="black" points="429.25,-212 100.75,-212 100.75,-176 429.25,-176 429.25,-212"/>
<text text-anchor="middle" x="265" y="-190.3" font-family="Times,serif" font-size="14.00">[•∀(contains(sk1, •0) = contains(sk2, •0))*]</text>
</g>
<!-- node_11&#45;&gt;node_6 -->
<g id="edge4" class="edge"><title>node_11&#45;&gt;node_6</title>
<path fill="none" stroke="black" d="M104.992,-263.803C136.981,-250.048 181.97,-230.703 216.1,-216.027"/>
<polygon fill="black" stroke="black" points="217.614,-219.186 225.418,-212.02 214.849,-212.755 217.614,-219.186"/>
<text text-anchor="middle" x="202" y="-234.3" font-family="Times,serif" font-size="14.00">sup+</text>
</g>
<!-- node_3 -->
<g id="node10" class="node"><title>node_3</title>
<polygon fill="lightgrey" stroke="black" points="435,-124 129,-124 129,-88 435,-88 435,-124"/>
<text text-anchor="middle" x="282" y="-102.3" font-family="Times,serif" font-size="14.00">[contains(sk1, X0) = contains(sk2, X0)*]</text>
</g>
<!-- node_6&#45;&gt;node_3 -->
<g id="edge40" class="edge"><title>node_6&#45;&gt;node_3</title>
<path fill="none" stroke="black" d="M268.44,-175.597C270.783,-163.746 273.932,-147.817 276.605,-134.292"/>
<polygon fill="black" stroke="black" points="280.117,-134.573 278.623,-124.084 273.25,-133.215 280.117,-134.573"/>
<text text-anchor="middle" x="291.5" y="-146.3" font-family="Times,serif" font-size="14.00">elim</text>
</g>
<!-- node_9 -->
<g id="node7" class="node"><title>node_9</title>
<polygon fill="lightgrey" stroke="black" points="571,-300 149,-300 149,-264 571,-264 571,-300"/>
<text text-anchor="middle" x="360" y="-278.3" font-family="Times,serif" font-size="14.00">[equ(X2, X1) = •∀(contains(X2, •0) = contains(X1, •0))*]</text>
</g>
<!-- node_9&#45;&gt;node_5 -->
<g id="edge8" class="edge"><title>node_9&#45;&gt;node_5</title>
<path fill="none" stroke="black" d="M410.088,-263.906C451.056,-249.925 509.093,-230.119 552.438,-215.327"/>
<polygon fill="black" stroke="black" points="553.673,-218.604 562.006,-212.061 551.412,-211.979 553.673,-218.604"/>
<text text-anchor="middle" x="528" y="-234.3" font-family="Times,serif" font-size="14.00">sup+</text>
</g>
<!-- node_9&#45;&gt;node_6 -->
<g id="edge6" class="edge"><title>node_9&#45;&gt;node_6</title>
<path fill="none" stroke="black" d="M340.775,-263.597C326.647,-250.807 307.273,-233.268 291.651,-219.126"/>
<polygon fill="black" stroke="black" points="293.634,-216.2 283.872,-212.084 288.936,-221.39 293.634,-216.2"/>
<text text-anchor="middle" x="341" y="-234.3" font-family="Times,serif" font-size="14.00">sup+</text>
</g>
<!-- node_3&#45;&gt;node_0 -->
<g id="edge10" class="edge"><title>node_3&#45;&gt;node_0</title>
<path fill="none" stroke="black" d="M347.592,-87.9063C415.718,-70.1522 519.891,-43.0043 574.936,-28.659"/>
<polygon fill="black" stroke="black" points="575.829,-32.0433 584.623,-26.1346 574.064,-25.2696 575.829,-32.0433"/>
<text text-anchor="middle" x="501.5" y="-58.3" font-family="Times,serif" font-size="14.00">demod</text>
</g>
<!-- node_10 -->
<g id="node13" class="node"><title>node_10</title>
<polygon fill="lightgrey" stroke="black" points="720.25,-300 589.75,-300 589.75,-264 720.25,-264 720.25,-300"/>
<text text-anchor="middle" x="655" y="-278.3" font-family="Times,serif" font-size="14.00">[equ(sk0, sk1)*]</text>
</g>
<!-- node_10&#45;&gt;node_5 -->
<g id="edge12" class="edge"><title>node_10&#45;&gt;node_5</title>
<path fill="none" stroke="black" d="M646.298,-263.597C640.197,-251.394 631.934,-234.867 625.047,-221.093"/>
<polygon fill="black" stroke="black" points="628.145,-219.463 620.542,-212.084 621.884,-222.594 628.145,-219.463"/>
<text text-anchor="middle" x="657" y="-234.3" font-family="Times,serif" font-size="14.00">sup+</text>
</g>
<!-- node_15 -->
<g id="node16" class="node"><title>node_15</title>
<polygon fill="lightgrey" stroke="black" points="1410.5,-584 983.5,-584 983.5,-548 1410.5,-548 1410.5,-584"/>
<text text-anchor="middle" x="1197" y="-562.3" font-family="Times,serif" font-size="14.00">[¬•∀(((equ(sk0, sk1) •&amp; equ(sk1, •0)) •→ equ(sk0, •0)))*]</text>
</g>
<!-- node_12 -->
<g id="node18" class="node"><title>node_12</title>
<polygon fill="lightgrey" stroke="black" points="1405.25,-496 988.75,-496 988.75,-460 1405.25,-460 1405.25,-496"/>
<text text-anchor="middle" x="1197" y="-474.3" font-family="Times,serif" font-size="14.00">[¬((equ(sk0, sk1) •&amp; equ(sk1, sk2)) •→ equ(sk0, sk2))*]</text>
</g>
<!-- node_15&#45;&gt;node_12 -->
<g id="edge16" class="edge"><title>node_15&#45;&gt;node_12</title>
<path fill="none" stroke="black" d="M1197,-547.597C1197,-535.746 1197,-519.817 1197,-506.292"/>
<polygon fill="black" stroke="black" points="1200.5,-506.084 1197,-496.084 1193.5,-506.084 1200.5,-506.084"/>
<text text-anchor="middle" x="1212.5" y="-518.3" font-family="Times,serif" font-size="14.00">elim</text>
</g>
<!-- node_14 -->
<g id="node29" class="node"><title>node_14</title>
<polygon fill="lightgrey" stroke="black" points="549.25,-408 280.75,-408 280.75,-372 549.25,-372 549.25,-408"/>
<text text-anchor="middle" x="415" y="-386.3" font-family="Times,serif" font-size="14.00">[(equ(sk0, sk1) •&amp; equ(sk1, sk2))*]</text>
</g>
<!-- node_12&#45;&gt;node_14 -->
<g id="edge42" class="edge"><title>node_12&#45;&gt;node_14</title>
<path fill="none" stroke="black" d="M988.728,-460.725C985.462,-460.481 982.218,-460.239 979,-460 865.697,-451.583 836.838,-455.265 724,-442 653.666,-433.732 574.913,-420.675 514.515,-409.843"/>
<polygon fill="black" stroke="black" points="515.066,-406.386 504.603,-408.055 513.824,-413.274 515.066,-406.386"/>
<text text-anchor="middle" x="739.5" y="-430.3" font-family="Times,serif" font-size="14.00">elim</text>
</g>
<!-- node_7 -->
<g id="node37" class="node"><title>node_7</title>
<polygon fill="lightgrey" stroke="black" points="1268.25,-354 1125.75,-354 1125.75,-318 1268.25,-318 1268.25,-354"/>
<text text-anchor="middle" x="1197" y="-332.3" font-family="Times,serif" font-size="14.00">[¬equ(sk0, sk2)*]</text>
</g>
<!-- node_12&#45;&gt;node_7 -->
<g id="edge44" class="edge"><title>node_12&#45;&gt;node_7</title>
<path fill="none" stroke="black" d="M1197,-459.833C1197,-436.007 1197,-392.658 1197,-364.349"/>
<polygon fill="black" stroke="black" points="1200.5,-364.307 1197,-354.307 1193.5,-364.307 1200.5,-364.307"/>
<text text-anchor="middle" x="1212.5" y="-430.3" font-family="Times,serif" font-size="14.00">elim</text>
</g>
<!-- node_4 -->
<g id="node19" class="node"><title>node_4</title>
<polygon fill="lightgrey" stroke="black" points="1147.25,-212 794.75,-212 794.75,-176 1147.25,-176 1147.25,-212"/>
<text text-anchor="middle" x="971" y="-190.3" font-family="Times,serif" font-size="14.00">[¬•∀(contains(sk0, •0) = contains(sk2, •0))+*]</text>
</g>
<!-- node_1 -->
<g id="node21" class="node"><title>node_1</title>
<polygon fill="lightgrey" stroke="black" points="1113,-124 789,-124 789,-88 1113,-88 1113,-124"/>
<text text-anchor="middle" x="951" y="-102.3" font-family="Times,serif" font-size="14.00">[contains(sk0, sk3) != contains(sk2, sk3)*]</text>
</g>
<!-- node_4&#45;&gt;node_1 -->
<g id="edge18" class="edge"><title>node_4&#45;&gt;node_1</title>
<path fill="none" stroke="black" d="M966.953,-175.597C964.169,-163.629 960.419,-147.501 957.254,-133.891"/>
<polygon fill="black" stroke="black" points="960.647,-133.031 954.973,-124.084 953.829,-134.617 960.647,-133.031"/>
<text text-anchor="middle" x="978.5" y="-146.3" font-family="Times,serif" font-size="14.00">elim</text>
</g>
<!-- node_1&#45;&gt;node_0 -->
<g id="edge26" class="edge"><title>node_1&#45;&gt;node_0</title>
<path fill="none" stroke="black" d="M883.619,-87.9063C813.271,-70.06 705.509,-42.722 649.197,-28.4365"/>
<polygon fill="black" stroke="black" points="649.856,-24.9927 639.302,-25.9262 648.134,-31.7778 649.856,-24.9927"/>
<text text-anchor="middle" x="836.5" y="-58.3" font-family="Times,serif" font-size="14.00">demod</text>
</g>
<!-- node_17 -->
<g id="node22" class="node"><title>node_17</title>
<polygon fill="lightgrey" stroke="black" points="1416,-672 978,-672 978,-636 1416,-636 1416,-672"/>
<text text-anchor="middle" x="1197" y="-650.3" font-family="Times,serif" font-size="14.00">[¬•∀(•∀(((equ(sk0, •1) •&amp; equ(•1, •0)) •→ equ(sk0, •0))))*]</text>
</g>
<!-- node_17&#45;&gt;node_15 -->
<g id="edge20" class="edge"><title>node_17&#45;&gt;node_15</title>
<path fill="none" stroke="black" d="M1197,-635.597C1197,-623.746 1197,-607.817 1197,-594.292"/>
<polygon fill="black" stroke="black" points="1200.5,-594.084 1197,-584.084 1193.5,-594.084 1200.5,-594.084"/>
<text text-anchor="middle" x="1212.5" y="-606.3" font-family="Times,serif" font-size="14.00">elim</text>
</g>
<!-- node_18 -->
<g id="node24" class="node"><title>node_18</title>
<polygon fill="yellow" stroke="yellow" points="1421.25,-760 972.75,-760 972.75,-724 1421.25,-724 1421.25,-760"/>
<text text-anchor="middle" x="1197" y="-738.3" font-family="Times,serif" font-size="14.00">[¬•∀(•∀(•∀(((equ(•2, •1) •&amp; equ(•1, •0)) •→ equ(•2, •0)))))*]</text>
</g>
<!-- node_18&#45;&gt;node_17 -->
<g id="edge22" class="edge"><title>node_18&#45;&gt;node_17</title>
<path fill="none" stroke="black" d="M1197,-723.597C1197,-711.746 1197,-695.817 1197,-682.292"/>
<polygon fill="black" stroke="black" points="1200.5,-682.084 1197,-672.084 1193.5,-682.084 1200.5,-682.084"/>
<text text-anchor="middle" x="1212.5" y="-694.3" font-family="Times,serif" font-size="14.00">elim</text>
</g>
<!-- node_8 -->
<g id="node26" class="node"><title>node_8</title>
<polygon fill="lightgrey" stroke="black" points="1161,-300 739,-300 739,-264 1161,-264 1161,-300"/>
<text text-anchor="middle" x="950" y="-278.3" font-family="Times,serif" font-size="14.00">[equ(X1, X0) = •∀(contains(X1, •0) = contains(X0, •0))*]</text>
</g>
<!-- node_8&#45;&gt;node_4 -->
<g id="edge24" class="edge"><title>node_8&#45;&gt;node_4</title>
<path fill="none" stroke="black" d="M954.25,-263.597C957.172,-251.629 961.11,-235.501 964.434,-221.891"/>
<polygon fill="black" stroke="black" points="967.856,-222.629 966.828,-212.084 961.056,-220.968 967.856,-222.629"/>
<text text-anchor="middle" x="987.5" y="-234.3" font-family="Times,serif" font-size="14.00">demod</text>
</g>
<!-- node_14&#45;&gt;node_11 -->
<g id="edge28" class="edge"><title>node_14&#45;&gt;node_11</title>
<path fill="none" stroke="black" d="M358.766,-371.969C296.734,-353.182 197.004,-322.978 131.234,-303.06"/>
<polygon fill="black" stroke="black" points="131.969,-299.625 121.384,-300.076 129.94,-306.325 131.969,-299.625"/>
<text text-anchor="middle" x="307.5" y="-332.3" font-family="Times,serif" font-size="14.00">elim</text>
</g>
<!-- node_14&#45;&gt;node_10 -->
<g id="edge30" class="edge"><title>node_14&#45;&gt;node_10</title>
<path fill="none" stroke="black" d="M453.56,-371.969C495.249,-353.557 561.767,-324.178 606.858,-304.263"/>
<polygon fill="black" stroke="black" points="608.404,-307.406 616.138,-300.164 605.576,-301.003 608.404,-307.406"/>
<text text-anchor="middle" x="586.5" y="-332.3" font-family="Times,serif" font-size="14.00">elim</text>
</g>
<!-- node_16 -->
<g id="node32" class="node"><title>node_16</title>
<polygon fill="yellow" stroke="yellow" points="970.25,-496 503.75,-496 503.75,-460 970.25,-460 970.25,-496"/>
<text text-anchor="middle" x="737" y="-474.3" font-family="Times,serif" font-size="14.00">[•∀(•∀(equ(•0, •1) = •∀(contains(•1, •0) = contains(•2, •0))))*]</text>
</g>
<!-- node_13 -->
<g id="node34" class="node"><title>node_13</title>
<polygon fill="lightgrey" stroke="black" points="1012.25,-408 567.75,-408 567.75,-372 1012.25,-372 1012.25,-408"/>
<text text-anchor="middle" x="790" y="-386.3" font-family="Times,serif" font-size="14.00">[•∀(equ(•0, X1) = •∀(contains(•1, •0) = contains(X1, •0)))*]</text>
</g>
<!-- node_16&#45;&gt;node_13 -->
<g id="edge32" class="edge"><title>node_16&#45;&gt;node_13</title>
<path fill="none" stroke="black" d="M747.725,-459.597C755.318,-447.277 765.627,-430.549 774.164,-416.696"/>
<polygon fill="black" stroke="black" points="777.205,-418.433 779.471,-408.084 771.245,-414.761 777.205,-418.433"/>
<text text-anchor="middle" x="784.5" y="-430.3" font-family="Times,serif" font-size="14.00">elim</text>
</g>
<!-- node_13&#45;&gt;node_9 -->
<g id="edge34" class="edge"><title>node_13&#45;&gt;node_9</title>
<path fill="none" stroke="black" d="M567.688,-372.85C524.319,-367.869 485.85,-361.633 465,-354 435.759,-343.296 406.763,-322.732 386.675,-306.479"/>
<polygon fill="black" stroke="black" points="388.837,-303.725 378.902,-300.044 384.373,-309.117 388.837,-303.725"/>
<text text-anchor="middle" x="480.5" y="-332.3" font-family="Times,serif" font-size="14.00">elim</text>
</g>
<!-- node_13&#45;&gt;node_8 -->
<g id="edge36" class="edge"><title>node_13&#45;&gt;node_8</title>
<path fill="none" stroke="black" d="M815.707,-371.969C842.802,-354.019 885.629,-325.646 915.615,-305.78"/>
<polygon fill="black" stroke="black" points="917.688,-308.605 924.092,-300.164 913.822,-302.769 917.688,-308.605"/>
<text text-anchor="middle" x="909.5" y="-332.3" font-family="Times,serif" font-size="14.00">elim</text>
</g>
<!-- node_7&#45;&gt;node_4 -->
<g id="edge38" class="edge"><title>node_7&#45;&gt;node_4</title>
<path fill="none" stroke="black" d="M1194.67,-317.828C1191.64,-301.858 1184.86,-278.422 1170,-264 1146.04,-240.744 1113.86,-225.3 1082.37,-215.054"/>
<polygon fill="black" stroke="black" points="1083.22,-211.652 1072.63,-212.038 1081.15,-218.339 1083.22,-211.652"/>
<text text-anchor="middle" x="1213.5" y="-278.3" font-family="Times,serif" font-size="14.00">demod</text>
</g>
</g>
</svg>
